<svg xmlns="http://www.w3.org/2000/svg" xmlns:xlink="http://www.w3.org/1999/xlink" viewBox="0 0 391.18 391.18"><defs><style>.cls-1{fill:url(#Degradado_sin_nombre_24);}.cls-2{fill:#93155c;}.cls-3{fill:#683c11;}</style><radialGradient id="Degradado_sin_nombre_24" cx="195.59" cy="195.59" r="163.09" gradientUnits="userSpaceOnUse"><stop offset="0" stop-color="#fff"/><stop offset="1" stop-color="#f2d7b8"/></radialGradient></defs><g id="Capa_4" data-name="Capa 4"><circle class="cls-1" cx="195.59" cy="195.59" r="163.09"/><path class="cls-2" d="M172.57,252.78a16.19,16.19,0,0,1,.42,9.16c-1,3.61-2.93,4.89-4.43,8.86a21.28,21.28,0,0,0-1.27,8.86,45.38,45.38,0,0,0,1.34,10,44.53,44.53,0,0,0,3.94,10.27,43.79,43.79,0,0,0,11.93,13.92h22.95l7.31-1.05a43.82,43.82,0,0,0,12.94-20,33,33,0,0,0,1.69-7,33.56,33.56,0,0,0-.84-12.66,37.37,37.37,0,0,0-6.47-10.13,37.89,37.89,0,0,0-6.75-5.91c-2.61-1.83-12.16-9.07-27-20.53"/><path class="cls-2" d="M172.57,252.78l-20-62.73,35.73,46.42q3.66,15.18,7.31,30.38L176.27,255Z"/><rect class="cls-3" x="184.5" y="58.35" width="22.18" height="159.53" transform="translate(57.47 333.71) rotate(-90)"/><rect class="cls-3" x="184.5" y="77.35" width="22.18" height="236.48"/><path class="cls-2" d="M208.74,264.61l-10.43,6.61a6.05,6.05,0,0,0-1.27,6.33,6.34,6.34,0,0,0,4.13,3.57l7.46-2.11,6.91-5.72,5.13-5,3.14-3.27-8.48-8"/></g></svg>