<svg width="35" height="35" viewBox="0 0 35 35" fill="none" xmlns="http://www.w3.org/2000/svg">
<g clip-path="url(#clip0_2_13)">
<path d="M6.19801 0.4375H28.802C32.2293 0.4375 35 3.20824 35 6.63551V28.3645C35 31.7918 32.2293 34.5625 28.802 34.5625H6.19801C2.77074 34.5625 0 31.7918 0 28.3645V6.63551C0 3.20824 2.77074 0.4375 6.19801 0.4375Z" fill="#001E36"/>
<path d="M12.5418 9.1145C12.1043 9.1145 11.6668 9.1145 11.2148 9.12927C10.7625 9.14376 10.3395 9.14376 9.94574 9.15853C9.55199 9.17302 9.1875 9.17302 8.8375 9.18751C8.50199 9.202 8.26875 9.202 8.02074 9.202C7.91875 9.202 7.875 9.26024 7.875 9.36251V24.3688C7.875 24.5 7.93324 24.5585 8.05 24.5585H10.8793C10.9812 24.5438 11.0543 24.4563 11.0395 24.3543V19.673C11.3165 19.673 11.5207 19.673 11.6668 19.6875C11.8125 19.702 12.0457 19.702 12.3957 19.702C13.5918 19.702 14.6855 19.5708 15.677 19.2063C16.625 18.8563 17.4418 18.2438 18.025 17.427C18.6083 16.6103 18.9 15.5749 18.9 14.3208C18.9 13.6645 18.7835 13.0375 18.5648 12.425C18.333 11.801 17.9699 11.234 17.5 10.7625C16.9454 10.2237 16.2779 9.81518 15.5457 9.56649C14.729 9.26024 13.7375 9.1145 12.5418 9.1145ZM12.8671 11.987C13.3867 11.9968 13.8925 12.0876 14.3645 12.279C14.7875 12.4395 15.1375 12.7313 15.3855 13.1102C15.6181 13.5025 15.7345 13.9527 15.721 14.4085C15.721 15.05 15.575 15.546 15.2687 15.9105C14.9477 16.275 14.5395 16.5523 14.073 16.6835C13.5332 16.8585 12.9645 16.9458 12.3957 16.9458H11.6227C11.4477 16.9458 11.2585 16.9313 11.0543 16.9168V12.0168C11.1562 12.002 11.3605 11.9875 11.6523 12.0023C11.9293 11.9875 12.2645 11.9875 12.6437 11.9875C12.7185 11.9857 12.793 11.9855 12.8671 11.987ZM25.098 12.7315C24.0625 12.7315 23.202 12.8918 22.5168 13.2418C21.8898 13.5335 21.35 14 20.9855 14.5833C20.6648 15.123 20.4895 15.7208 20.4895 16.348C20.477 16.8639 20.5923 17.3749 20.825 17.8355C21.0977 18.326 21.4764 18.7494 21.9335 19.075C22.575 19.5138 23.2712 19.8668 24.0043 20.125C24.7187 20.402 25.2 20.6208 25.4335 20.8102C25.6668 21 25.7835 21.1895 25.7835 21.3938C25.7835 21.6563 25.623 21.9043 25.3898 22.0063C25.1273 22.1375 24.7335 22.2105 24.1793 22.2105C23.596 22.2105 23.0125 22.1375 22.4582 21.9918C21.8218 21.8496 21.2117 21.6085 20.65 21.2773C20.6062 21.248 20.5625 21.2335 20.5187 21.2628C20.475 21.2918 20.4605 21.35 20.4605 21.3938V23.9313C20.446 24.048 20.5187 24.15 20.621 24.2083C21.0939 24.4292 21.5942 24.5862 22.1085 24.675C22.7648 24.8063 23.4207 24.8645 24.0915 24.8645C25.1415 24.8645 26.0168 24.7043 26.7312 24.398C27.3875 24.1355 27.9562 23.6835 28.3645 23.1C28.7468 22.5264 28.9452 21.8498 28.9332 21.1605C28.9476 20.6398 28.8324 20.1237 28.598 19.6585C28.3207 19.1625 27.927 18.7543 27.4457 18.448C26.7417 18.0059 25.9879 17.6485 25.2 17.3833C24.8481 17.2376 24.5027 17.0771 24.1645 16.902C23.975 16.8 23.8 16.6688 23.6687 16.5083C23.5812 16.3915 23.523 16.2605 23.523 16.1293C23.523 15.998 23.5668 15.8523 23.6395 15.7355C23.7418 15.5898 23.902 15.4875 24.0915 15.4438C24.3687 15.371 24.675 15.327 24.9665 15.3415C25.5207 15.3415 26.0602 15.4145 26.6 15.5313C27.096 15.6333 27.5625 15.7938 28 16.0273C28.0582 16.0563 28.1312 16.0563 28.2625 16.0273C28.2853 16.0104 28.3038 15.9884 28.3165 15.963C28.3291 15.9376 28.3357 15.9096 28.3355 15.8813V13.5043C28.3355 13.4458 28.3207 13.3875 28.3062 13.3293C28.277 13.271 28.2187 13.2125 28.1605 13.198C27.7583 13.0336 27.3368 12.9209 26.9062 12.8625C26.3074 12.7753 25.7031 12.7317 25.098 12.7315Z" fill="#31A8FF"/>
</g>
<defs>
<clipPath id="clip0_2_13">
<rect width="35" height="35" fill="white"/>
</clipPath>
</defs>
</svg>
