<svg width="81" height="81" viewBox="0 0 81 81" fill="none" xmlns="http://www.w3.org/2000/svg">
<path d="M40.4977 80.9878C62.864 80.9878 80.9955 62.858 80.9955 40.4939C80.9955 18.1297 62.864 0 40.4977 0C18.1315 0 0 18.1297 0 40.4939C0 62.858 18.1315 80.9878 40.4977 80.9878Z" fill="url(#paint0_radial_5_136)"/>
<path d="M34.7801 54.6953C35.0994 55.7246 35.0179 56.4746 34.8849 56.9685C34.6421 57.8665 34.1581 58.1824 33.7839 59.1685C33.5247 59.8714 33.4175 60.6213 33.4696 61.3686C33.4883 62.2037 33.5998 63.0342 33.8022 63.8447C34.0222 64.7324 34.3506 65.5898 34.7801 66.3973C35.5134 67.7451 36.5233 68.9227 37.7437 69.8528H43.4414L45.2575 69.5934C46.7662 68.2613 47.8785 66.5392 48.4723 64.6163C48.6752 64.0513 48.8157 63.4658 48.8913 62.8702C49.0216 61.8188 48.9505 60.7521 48.6818 59.7273C47.9872 58.1153 46.8479 56.7345 45.3972 55.7462C44.7503 55.2873 42.387 53.4896 38.6917 50.6477" fill="#93155C"/>
<path d="M34.7801 54.6953L29.8208 39.1187L38.6917 50.6477L40.5078 58.1907L35.6998 55.259L34.7801 54.6953Z" fill="#93155C"/>
<path d="M20.6904 23.4722V28.9781L60.3034 28.9781V23.4722L20.6904 23.4722Z" fill="#683C11"/>
<path d="M43.2501 11.1366H37.7437V69.8512H43.2501V11.1366Z" fill="#683C11"/>
<path d="M43.7623 57.632L41.1712 59.2733C40.9765 59.4792 40.8437 59.7359 40.7881 60.0138C40.7325 60.2918 40.7563 60.5798 40.8569 60.8448C40.9504 61.0601 41.0912 61.2515 41.2689 61.405C41.4465 61.5584 41.6564 61.6699 41.883 61.7311L43.7357 61.2073L45.4504 59.7938L46.7243 58.5483L47.5043 57.7384L45.3971 55.7429" fill="#93155C"/>
<defs>
<radialGradient id="paint0_radial_5_136" cx="0" cy="0" r="1" gradientUnits="userSpaceOnUse" gradientTransform="translate(40.4977 40.4939) scale(40.4977 40.4939)">
<stop stop-color="white"/>
<stop offset="1" stop-color="#F2D7B8"/>
</radialGradient>
</defs>
</svg>
