<svg width="103" height="103" viewBox="0 0 103 103" fill="none" xmlns="http://www.w3.org/2000/svg">
<path d="M40.2344 16.0938C36.7903 16.0938 33.7904 18.0508 31.8849 20.7223C29.9794 23.3939 28.9688 26.8444 28.9688 30.5781C28.9688 34.3119 29.9794 37.7656 31.8849 40.4372C33.7904 43.1087 36.7903 45.0625 40.2344 45.0625C43.6784 45.0625 46.6783 43.1055 48.5838 40.4339C50.4893 37.7624 51.5 34.3119 51.5 30.5781C51.5 26.8444 50.4893 23.3907 48.5838 20.7191C46.6783 18.0475 43.6784 16.0938 40.2344 16.0938ZM51.5 30.5781C51.5 34.3119 52.5107 37.7656 54.4162 40.4372C56.3217 43.1087 59.3248 45.0625 62.7656 45.0625C66.2097 45.0625 69.2096 43.1055 71.1151 40.4339C73.0206 37.7624 74.0312 34.3119 74.0312 30.5781C74.0312 26.8444 73.0206 23.3907 71.1151 20.7191C69.2096 18.0475 66.2097 16.0938 62.7656 16.0938C59.3216 16.0938 56.3217 18.0508 54.4162 20.7223C52.5107 23.3939 51.5 26.8444 51.5 30.5781ZM40.2344 22.5313C41.2386 22.5313 42.3459 23.0334 43.3566 24.4432C44.3544 25.8498 45.0625 28.09 45.0625 30.5781C45.0625 33.0662 44.3544 35.3097 43.3566 36.7131C42.3459 38.1229 41.2386 38.625 40.2344 38.625C39.2301 38.625 38.1229 38.1229 37.1122 36.7131C36.1144 35.3065 35.4062 33.0662 35.4062 30.5781C35.4062 28.09 36.1144 25.8466 37.1122 24.4432C38.1229 23.0334 39.2301 22.5313 40.2344 22.5313ZM62.7656 22.5313C63.7699 22.5313 64.8771 23.0334 65.8878 24.4432C66.8856 25.8498 67.5938 28.09 67.5938 30.5781C67.5938 33.0662 66.8856 35.3097 65.8878 36.7131C64.8771 38.1229 63.7699 38.625 62.7656 38.625C61.7614 38.625 60.6541 38.1229 59.6434 36.7131C58.6456 35.3065 57.9375 33.0662 57.9375 30.5781C57.9375 28.09 58.6456 25.8466 59.6434 24.4432C60.6541 23.0334 61.7614 22.5313 62.7656 22.5313ZM24.1406 38.625C20.6966 38.625 17.6967 40.582 15.7912 43.2536C13.8857 45.9251 12.875 49.3756 12.875 53.1094C12.875 56.8431 13.8857 60.2968 15.7912 62.9684C17.6967 65.64 20.6966 67.5938 24.1406 67.5938C27.5847 67.5938 30.5846 65.6368 32.4901 62.9652C34.3956 60.2936 35.4062 56.8431 35.4062 53.1094C35.4062 49.3756 34.3956 45.9219 32.4901 43.2503C30.5846 40.5788 27.5847 38.625 24.1406 38.625ZM78.8594 38.625C75.4153 38.625 72.4154 40.582 70.5099 43.2536C68.6044 45.9251 67.5938 49.3756 67.5938 53.1094C67.5938 56.8431 68.6044 60.2968 70.5099 62.9684C72.4154 65.64 75.4153 67.5938 78.8594 67.5938C82.3034 67.5938 85.3033 65.6368 87.2088 62.9652C89.1143 60.2936 90.125 56.8431 90.125 53.1094C90.125 49.3756 89.1143 45.9219 87.2088 43.2503C85.3033 40.5788 82.3034 38.625 78.8594 38.625ZM24.1406 45.0625C25.1449 45.0625 26.2521 45.5646 27.2628 46.9744C28.2606 48.381 28.9688 50.6213 28.9688 53.1094C28.9688 55.5975 28.2606 57.8409 27.2628 59.2443C26.2521 60.6541 25.1449 61.1563 24.1406 61.1563C23.1364 61.1563 22.0291 60.6541 21.0184 59.2443C20.0206 57.8409 19.3125 55.5975 19.3125 53.1094C19.3125 50.6213 20.0206 48.3778 21.0184 46.9744C22.0291 45.5646 23.1364 45.0625 24.1406 45.0625ZM78.8594 45.0625C79.8636 45.0625 80.9709 45.5646 81.9816 46.9744C82.9794 48.381 83.6875 50.6213 83.6875 53.1094C83.6875 55.5975 82.9794 57.8409 81.9816 59.2443C80.9709 60.6541 79.8636 61.1563 78.8594 61.1563C77.8551 61.1563 76.7479 60.6541 75.7372 59.2443C74.7394 57.8377 74.0312 55.5975 74.0312 53.1094C74.0312 50.6213 74.7394 48.3778 75.7372 46.9744C76.7479 45.5646 77.8551 45.0625 78.8594 45.0625ZM51.5 51.5C47.2094 51.5 44.216 54.2842 42.745 56.7305C41.2837 59.1767 40.3824 61.211 39.5262 62.0607C39.0338 62.5661 35.9277 63.7345 32.6896 65.3857C31.0706 66.2129 29.4387 67.3169 28.0643 69.0068C26.6802 70.6966 25.7468 73.0302 25.7468 75.6471C25.7468 81.8271 30.8324 86.9127 37.0124 86.9127C39.7998 86.9127 42.7096 86.0114 45.5582 85.2068C48.4197 84.3828 51.5 83.6875 51.5 83.6875C51.5 83.6875 54.5803 84.3828 57.4354 85.2003C60.2872 86.005 63.1969 86.9063 65.9844 86.9063C72.1644 86.9063 77.25 81.8206 77.25 75.6406C77.25 73.0849 76.3069 70.7481 74.9325 69.1066C73.5645 67.4553 71.9165 66.435 70.3104 65.582C67.0916 63.8761 63.9276 62.5242 63.4705 62.0607C62.698 61.2979 61.829 59.196 60.3483 56.7369C58.8709 54.2681 55.8131 51.5 51.5 51.5ZM51.5 57.9375C53.6244 57.9375 53.8593 58.4525 54.8153 60.049C55.7809 61.6423 56.5019 64.3493 58.8388 66.6893C61.4942 69.3287 64.8482 69.908 67.2912 71.2084C68.5143 71.8586 69.4478 72.5506 70.0078 73.2201C70.5647 73.8864 70.8125 74.4948 70.8125 75.6342C70.8125 78.3379 68.6881 80.4623 65.9844 80.4623C65.0509 80.4623 62.0446 79.7542 59.2443 78.9495C56.444 78.1545 54.1265 77.2436 51.5 77.2436C48.8735 77.2436 46.556 78.1545 43.7557 78.9495C40.9554 79.7542 37.9491 80.4623 37.0156 80.4623C34.3119 80.4623 32.1875 78.3379 32.1875 75.6342C32.1875 74.337 32.4579 73.6708 32.9922 73.0141C33.5265 72.3607 34.5114 71.7138 35.7088 71.1054C38.1036 69.8823 41.4382 69.3995 44.158 66.6796C46.5174 64.3074 47.2255 61.5135 48.1815 59.9363C49.1213 58.3592 49.3467 57.9246 51.4968 57.9246L51.5 57.9375Z" fill="black"/>
<path d="M34.6359 82.8924H42.3208L47.0171 80.4303H52.9943L61.1061 82.8924H69.6449L72.6334 78.3785V71.8127L65.8024 66.0677L58.1175 59.9123L55.5559 57.0398L49.5788 54.988L42.3208 59.9123L36.7706 66.0677L30.3665 71.8127V78.3785L34.6359 82.8924Z" fill="black" stroke="black"/>
<ellipse cx="24.2112" cy="53.3466" rx="6.15538" ry="10.259" fill="black"/>
<ellipse cx="38.9841" cy="29.9562" rx="6.15538" ry="10.259" fill="black"/>
<ellipse cx="64.0159" cy="29.9562" rx="6.15538" ry="10.259" fill="black"/>
<ellipse cx="78.7889" cy="53.3466" rx="6.15538" ry="10.259" fill="black"/>
<path d="M39.776 73.192C39.776 73.5173 39.7013 73.816 39.552 74.088C39.4027 74.3547 39.1733 74.5707 38.864 74.736C38.5547 74.9013 38.1707 74.984 37.712 74.984H36.864V77H35.496V71.384H37.712C38.16 71.384 38.5387 71.4613 38.848 71.616C39.1573 71.7707 39.3893 71.984 39.544 72.256C39.6987 72.528 39.776 72.84 39.776 73.192ZM37.608 73.896C37.8693 73.896 38.064 73.8347 38.192 73.712C38.32 73.5893 38.384 73.416 38.384 73.192C38.384 72.968 38.32 72.7947 38.192 72.672C38.064 72.5493 37.8693 72.488 37.608 72.488H36.864V73.896H37.608ZM41.8562 72.48V73.616H43.6882V74.672H41.8562V75.904H43.9282V77H40.4882V71.384H43.9282V72.48H41.8562ZM48.8563 71.384V72.48H47.3683V77H46.0003V72.48H44.5123V71.384H48.8563ZM49.3109 74.184C49.3109 73.6293 49.4309 73.136 49.6709 72.704C49.9109 72.2667 50.2442 71.928 50.6709 71.688C51.1029 71.4427 51.5909 71.32 52.1349 71.32C52.8015 71.32 53.3722 71.496 53.8469 71.848C54.3215 72.2 54.6389 72.68 54.7989 73.288H53.2949C53.1829 73.0533 53.0229 72.8747 52.8149 72.752C52.6122 72.6293 52.3802 72.568 52.1189 72.568C51.6975 72.568 51.3562 72.7147 51.0949 73.008C50.8335 73.3013 50.7029 73.6933 50.7029 74.184C50.7029 74.6747 50.8335 75.0667 51.0949 75.36C51.3562 75.6533 51.6975 75.8 52.1189 75.8C52.3802 75.8 52.6122 75.7387 52.8149 75.616C53.0229 75.4933 53.1829 75.3147 53.2949 75.08H54.7989C54.6389 75.688 54.3215 76.168 53.8469 76.52C53.3722 76.8667 52.8015 77.04 52.1349 77.04C51.5909 77.04 51.1029 76.92 50.6709 76.68C50.2442 76.4347 49.9109 76.096 49.6709 75.664C49.4309 75.232 49.3109 74.7387 49.3109 74.184ZM58.2926 77.056C57.7646 77.056 57.2793 76.9333 56.8366 76.688C56.3993 76.4427 56.05 76.1013 55.7886 75.664C55.5326 75.2213 55.4046 74.7253 55.4046 74.176C55.4046 73.6267 55.5326 73.1333 55.7886 72.696C56.05 72.2587 56.3993 71.9173 56.8366 71.672C57.2793 71.4267 57.7646 71.304 58.2926 71.304C58.8206 71.304 59.3033 71.4267 59.7406 71.672C60.1833 71.9173 60.53 72.2587 60.7806 72.696C61.0366 73.1333 61.1646 73.6267 61.1646 74.176C61.1646 74.7253 61.0366 75.2213 60.7806 75.664C60.5246 76.1013 60.178 76.4427 59.7406 76.688C59.3033 76.9333 58.8206 77.056 58.2926 77.056ZM58.2926 75.808C58.7406 75.808 59.098 75.6587 59.3646 75.36C59.6366 75.0613 59.7726 74.6667 59.7726 74.176C59.7726 73.68 59.6366 73.2853 59.3646 72.992C59.098 72.6933 58.7406 72.544 58.2926 72.544C57.8393 72.544 57.4766 72.6907 57.2046 72.984C56.938 73.2773 56.8046 73.6747 56.8046 74.176C56.8046 74.672 56.938 75.0693 57.2046 75.368C57.4766 75.6613 57.8393 75.808 58.2926 75.808ZM68.2857 71.384V77H66.9177V73.632L65.6617 77H64.5577L63.2937 73.624V77H61.9257V71.384H63.5417L65.1177 75.272L66.6777 71.384H68.2857Z" fill="white"/>
</svg>
