<svg id="Capa_1" data-name="Capa 1" xmlns="http://www.w3.org/2000/svg" viewBox="0 0 175.95 186.66"><defs><style>.cls-1{fill:#f9f9f9;}</style></defs><path class="cls-1" d="M227.91,51q-1.8-1.7-6.7-1.89-6.79-.36-12.92-.56t-12.74-.19q-6.42,0-14.06.09t-17.26.1q-4.15,0-10,.19t-12.08.85a66.45,66.45,0,0,0-11.7,2.26,23.6,23.6,0,0,0-8.87,4.53,9.4,9.4,0,0,0-3.39,7.45,15.15,15.15,0,0,0,.94,4.53,16.12,16.12,0,0,0,2.36,4.15,40.51,40.51,0,0,0,4,4.63,22.77,22.77,0,0,0,3.68,3.11A2.88,2.88,0,0,0,131,80c.63-.32.94-.67.94-1l-.38-.38a9.61,9.61,0,0,1-5.65-9.25,9.74,9.74,0,0,1,1.69-5.66c1.64-2.38,4.34-4.34,8.12-5.85a67.52,67.52,0,0,1,13-3.58,118.47,118.47,0,0,1,14.52-1.7q2.83-.18,7.55-.38l9-.37c2.84-.13,4.69-.19,5.57-.19a43.59,43.59,0,0,0-8.68,4.72,24.17,24.17,0,0,0-8.11,9.24Q165.36,71.8,161.4,80t-8.3,17l-.12.23c-2.69,0-5.84,0-9.5.09-3.84.06-7.8.32-11.89.75a69.58,69.58,0,0,0-11.41,2.17,22.68,22.68,0,0,0-8.59,4.34,9.24,9.24,0,0,0-3.3,7.36,14.07,14.07,0,0,0,.76,4.53,16,16,0,0,0,2.35,4.15,35.34,35.34,0,0,0,4.06,4.63,25.51,25.51,0,0,0,3.78,3.11,2.56,2.56,0,0,0,1.79-.28c.56-.32.85-.6.85-.85s-.13-.32-.38-.57a10.31,10.31,0,0,1-4.34-4.34,12.57,12.57,0,0,1-1.7-6.23,9.74,9.74,0,0,1,1.7-5.66q2.45-3.58,8.11-5.56a56.83,56.83,0,0,1,12.83-2.74q6.45-.68,12.88-.89-3.25,6.52-6.47,12.74-4.24,8.2-8.11,14.72a57.16,57.16,0,0,1-6.89,9.71A53.71,53.71,0,0,1,118,148.12,24,24,0,0,1,105.17,152a14.67,14.67,0,0,1-11-4.62q-4.44-4.62-4.43-13.49c0-.76,0-1.51.09-2.27s.1-1.51.1-2.26a.34.34,0,0,0-.38-.38,1.34,1.34,0,0,0-1.42,1.13,10.13,10.13,0,0,0-.28,2.46V135a54.63,54.63,0,0,0,.28,5.47,20.18,20.18,0,0,0,1.23,5.28,20,20,0,0,0,7.92,10.1,20.7,20.7,0,0,0,11.14,3.3A27.68,27.68,0,0,0,121.21,156a39.55,39.55,0,0,0,9.31-6.65L129.05,153q-2.84,7.08-4.34,10.29a250.14,250.14,0,0,1-13.12,25.56,127.66,127.66,0,0,1-16.13,22,52.49,52.49,0,0,1-11.41,9.63,24,24,0,0,1-12.74,3.77,15.06,15.06,0,0,1-11.23-4.53q-4.42-4.53-4.43-13.39c0-1-.31-1.51-.95-1.51s-.94.87-.94,2.64a51.68,51.68,0,0,0,.28,5.37A20.08,20.08,0,0,0,55.27,218a20.47,20.47,0,0,0,7.93,10.2,21.57,21.57,0,0,0,6.54,2.91c6,1.49,15.05.9,22.91,1.53s15.82,1.2,23.87,1.7,15.59.75,22.64.75q13.4,0,13.4-7.73a10.64,10.64,0,0,0-.57-3.4,19.23,19.23,0,0,0-2.64-4.62,54.34,54.34,0,0,0-4.43-5.48,14.21,14.21,0,0,0-4.06-3.3,1.09,1.09,0,0,0-1.23,0,1.06,1.06,0,0,0-.47.76q0,.38.57.75,5.09,2.27,5.09,7a9.56,9.56,0,0,1-1.89,5.67q-1.69,2.26-9.43,2.83t-16.79.56H87.78l.42-.2a42.09,42.09,0,0,0,12-8.77,100.45,100.45,0,0,0,12.64-16.61,158.36,158.36,0,0,0,9.34-18.2q4.25-9.72,9.15-21,2.07-4.53,4.81-10.76T141.6,140q2.73-6.31,5.09-11.32t3.49-7.26a99.09,99.09,0,0,1,4.81-8.78,40.53,40.53,0,0,1,7-8.58,15.33,15.33,0,0,1,3.76-2.59h24.91c1.77,0,2.65,1,2.65,3a14.44,14.44,0,0,1-.85,4.43c-.57,1.7-1.11,3.12-1.61,4.25-.25.5.13.57,1.14.19s1.57-.82,1.69-1.32a21.3,21.3,0,0,1,2.55-4.44,27,27,0,0,0,2.93-5.18,10.64,10.64,0,0,0,.94-3c0-1.39-.82-2.24-2.45-2.55a37.08,37.08,0,0,0-6.61-.47c-2.52,0-5.53,0-9.06-.1s-6.88-.09-10.09-.09h-7.45c-1.14,0-1.7-.31-1.7-.94a2.61,2.61,0,0,1,.19-1.14q2.82-5.84,6.41-13.58A155.92,155.92,0,0,1,177,66q4-6.8,8-9.81a21.47,21.47,0,0,1,8.87-3.59,58,58,0,0,1,11.32-1.13,53,53,0,0,1,5.66.28,17.39,17.39,0,0,1,4.53,1,7.58,7.58,0,0,1,4.53,3.87,13.92,13.92,0,0,1,1.32,6.13,20,20,0,0,1-.38,3.87c-.25,1.32-.5,2.55-.75,3.68s.19,1.48,1.32,1a4.42,4.42,0,0,0,2.45-2.17c1.14-2.14,2.39-4.47,3.78-7a14.65,14.65,0,0,0,2.07-7A5.48,5.48,0,0,0,227.91,51Z" transform="translate(-53.76 -48.4)"/></svg>