<svg width="35" height="35" viewBox="0 0 35 35" fill="none" xmlns="http://www.w3.org/2000/svg">
<g clip-path="url(#clip0_2_16)">
<path d="M29.1895 0H5.81055C2.60147 0 0 2.60147 0 5.81055V28.3145C0 31.5235 2.60147 34.125 5.81055 34.125H29.1895C32.3985 34.125 35 31.5235 35 28.3145V5.81055C35 2.60147 32.3985 0 29.1895 0Z" fill="#49021F"/>
<path d="M12.7106 8.92736V23.8836C12.7106 24.0402 12.6401 24.1185 12.4992 24.1185H9.65821C9.53279 24.1185 9.47022 24.0402 9.47049 23.8836V8.92736C9.47049 8.80222 9.5409 8.7396 9.68172 8.73951H12.5227C12.5466 8.73613 12.571 8.73799 12.5941 8.74497C12.6172 8.75195 12.6385 8.76387 12.6565 8.77991C12.6745 8.79596 12.6888 8.81573 12.6984 8.83787C12.708 8.86 12.7127 8.88397 12.7121 8.90809L12.7106 8.92736ZM21.2673 24.3517L21.1161 24.3532C20.0354 24.3697 18.9646 24.1451 17.9816 23.6959C17.0659 23.272 16.3004 22.5802 15.7864 21.7118C15.267 20.8492 15.001 19.7741 14.9885 18.4866L14.9881 18.3895C14.9792 17.3119 15.2546 16.251 15.7865 15.3138C16.3196 14.3847 17.0971 13.6195 18.0346 13.1013L18.1108 13.0597C19.128 12.4962 20.3568 12.2145 21.7971 12.2145L21.8274 12.2146L21.8948 12.2161L21.9711 12.2191L22.0563 12.2235L22.1502 12.2294L22.2529 12.2369L22.4849 12.2559L22.5483 12.2614V7.63619C22.5483 7.52673 22.5953 7.4719 22.6891 7.47172H25.6476C25.6667 7.46898 25.6862 7.47073 25.7046 7.47683C25.7229 7.48294 25.7396 7.49323 25.7532 7.5069C25.7669 7.52057 25.7772 7.53723 25.7833 7.55556C25.7894 7.5739 25.7912 7.59341 25.7884 7.61254V21.4888C25.7893 21.7787 25.8011 22.0685 25.8237 22.3575L25.8458 22.6602L25.8654 22.942L25.8824 23.2027C25.8853 23.2515 25.8734 23.3 25.8482 23.3419C25.8231 23.3838 25.7859 23.4172 25.7415 23.4376C24.9783 23.7559 24.1834 23.9919 23.3701 24.1418C22.6763 24.27 21.9729 24.3402 21.2674 24.3517M22.5485 21.4418V15.032C22.4216 14.9976 22.292 14.9741 22.1611 14.9616C22.0012 14.9454 21.8405 14.9376 21.6798 14.9381C21.1099 14.9325 20.5469 15.0611 20.0363 15.3138C19.5389 15.5612 19.1142 15.9333 18.8036 16.3939C18.4826 16.8633 18.3221 17.4816 18.3222 18.2487C18.3108 18.7605 18.3944 19.2699 18.5687 19.7513C18.7106 20.1391 18.9349 20.4916 19.2262 20.7844C19.505 21.0538 19.8426 21.2548 20.2124 21.3714C20.6029 21.4978 21.011 21.5612 21.4215 21.5594C21.6405 21.5594 21.844 21.5515 22.0319 21.5357C22.1819 21.5244 22.3305 21.4997 22.476 21.4619L22.5485 21.4418Z" fill="#FF3366"/>
</g>
<defs>
<clipPath id="clip0_2_16">
<rect width="35" height="34.1797" fill="white"/>
</clipPath>
</defs>
</svg>
