<svg width="109" height="37" viewBox="0 0 109 37" fill="none" xmlns="http://www.w3.org/2000/svg">
<g clip-path="url(#clip0_11_50)">
<path d="M14.9045 21.5609L10.2173 20.4615C8.00621 19.9387 6.84623 18.995 6.84623 17.5308C6.84623 15.5949 8.32106 14.4421 10.8493 14.4421C13.3776 14.4421 14.8004 15.8552 14.8524 18.0537H20.9625C20.9104 13.029 16.9594 9.67993 11.1145 9.67993C5.26961 9.67993 0.790679 12.7176 0.790679 17.7934C0.790679 21.9281 3.05618 24.1266 7.74343 25.1725L12.4307 26.2719C14.7483 26.7948 15.4325 27.7384 15.4325 29.0445C15.4325 30.9294 13.799 32.1333 10.7973 32.1333C7.79552 32.1333 6.16208 30.7202 6.11 28.4704H0C0 33.5464 4.10727 36.9999 10.5866 36.9999C17.0658 36.9999 21.4879 33.7555 21.4879 28.5216C21.4879 24.545 19.2769 22.5556 14.9045 21.5609Z" fill="#000046"/>
<path d="M30.8577 10.4655H24.4329V36.319H30.8577V10.4655Z" fill="#000046"/>
<path d="M41.7331 0H35.3604V36.3191H41.7331V0Z" fill="#000046"/>
<path d="M61.7416 9.62884C57.7906 9.62884 54.3153 11.3557 52.6298 14.2352V0H46.205V36.3191H52.6298L52.5777 32.289C54.1046 35.2731 57.4236 36.9976 61.3201 36.9976C68.7984 36.9976 73.6964 31.5034 73.6964 23.548C73.6964 15.5925 69.1678 9.62651 61.7416 9.62651V9.62884ZM60.0039 31.1386C55.5796 31.1386 52.6819 27.9452 52.6819 23.2877C52.6819 18.6301 55.5796 15.3856 60.0039 15.3856C64.4284 15.3856 67.2196 18.6837 67.2196 23.2877C67.2196 27.8918 64.5326 31.1386 60.0039 31.1386Z" fill="#000046"/>
<path d="M89.3277 9.7334C81.2695 9.7334 75.4222 15.2811 75.4222 23.3412C75.4222 31.4011 81.2695 36.9489 89.3277 36.9489C97.386 36.9489 103.233 31.4011 103.233 23.3412C103.233 15.2811 97.386 9.7334 89.3277 9.7334ZM89.3277 31.2432C84.9032 31.2432 81.8494 28.0498 81.8494 23.3412C81.8494 18.6324 84.9032 15.4392 89.3277 15.4392C93.7522 15.4392 96.806 18.6324 96.806 23.3412C96.806 28.0498 93.7522 31.2432 89.3277 31.2432Z" fill="#000046"/>
<path d="M105.155 0.208862C102.944 0.208862 101.204 1.88456 101.204 4.02971C101.204 6.17489 102.942 7.90171 105.155 7.90171C107.369 7.90171 109 6.17489 109 4.02971C109 1.88456 107.262 0.208862 105.155 0.208862Z" fill="#000046"/>
</g>
<defs>
<clipPath id="clip0_11_50">
<rect width="109" height="37" fill="white"/>
</clipPath>
</defs>
</svg>
