<svg width="68" height="68" viewBox="0 0 68 68" fill="none" xmlns="http://www.w3.org/2000/svg">
<g clip-path="url(#clip0_11_13)">
<path d="M33.9984 1.67419e-07C27.2743 0.000667438 20.7014 1.9952 15.1108 5.73139C9.52029 9.46758 5.16317 14.7776 2.59043 20.9901C0.017698 27.2025 -0.655101 34.0383 0.657113 40.6331C1.96933 47.2279 5.20762 53.2855 9.9625 58.04C14.7174 62.7944 20.7753 66.0321 27.3702 67.3436C33.9652 68.6552 40.8009 67.9817 47.0131 65.4083C53.2253 62.835 58.5349 58.4773 62.2705 52.8864C66.0062 47.2955 68.0001 40.7224 68.0001 33.9983C68.0001 29.5333 67.1206 25.112 65.4118 20.9869C63.703 16.8619 61.1984 13.1138 58.041 9.95668C54.8836 6.7996 51.1353 4.29538 47.01 2.587C42.8847 0.878622 38.4634 -0.000442921 33.9984 1.67419e-07ZM33.9984 62.6828C28.3264 62.6828 22.7819 61.0009 18.0659 57.8497C13.3498 54.6986 9.67414 50.2197 7.50359 44.9796C5.33304 39.7394 4.76512 33.9733 5.87166 28.4103C6.9782 22.8474 9.70949 17.7375 13.7201 13.7268C17.7308 9.71618 22.8407 6.98489 28.4036 5.87835C33.9666 4.77181 39.7327 5.33973 44.9729 7.51028C50.213 9.68083 54.6919 13.3565 57.8431 18.0726C60.9942 22.7886 62.6761 28.3331 62.6761 34.0051C62.6761 41.6109 59.6547 48.9052 54.2766 54.2833C48.8985 59.6614 41.6042 62.6828 33.9984 62.6828Z" fill="#19B689"/>
<path d="M29.0152 26.866C30.0611 27.9962 31.4848 28.8059 32.9389 29.5043C34.3931 30.2027 35.9484 30.7459 37.4936 31.4207C39.0486 32.0802 40.5299 32.9012 41.9134 33.8701C43.3316 34.8523 44.5328 36.1155 45.4424 37.5813C45.628 37.9187 45.8777 38.138 46.0059 38.0739L46.1442 38.0031C46.2724 37.939 46.2184 37.5948 46.0194 37.2338C45.0642 35.6864 43.801 34.3519 42.3081 33.3134C40.8868 32.3166 39.3647 31.4719 37.7669 30.7931C37.3789 30.611 36.9842 30.4558 36.5895 30.3006L35.4255 29.8451C34.6731 29.5482 33.9376 29.2277 33.219 28.8937C31.7986 28.2189 30.4389 27.426 29.5077 26.4139C29.3222 26.1811 29.0725 26.0765 28.9578 26.1474L28.8296 26.2384C28.7216 26.316 28.7992 26.6028 29.0152 26.866Z" fill="#00537B"/>
<path d="M46.2691 39.3189C46.7796 40.7772 47.0241 42.3154 46.9911 43.8601C46.9742 44.238 47.0754 44.5517 47.2171 44.5619H47.3723C47.514 44.5619 47.6456 44.2548 47.6625 43.8567C47.6944 42.2335 47.435 40.6177 46.8966 39.0861C46.738 38.7082 46.5019 38.4484 46.3737 38.5092L46.2286 38.5733C46.1071 38.6306 46.1206 38.9646 46.2691 39.3189Z" fill="#00537B"/>
<path d="M42.8479 35.3546L42.9525 35.2365C43.0503 35.1319 42.8951 34.8485 42.6151 34.6023C41.3 33.5538 39.8609 32.6711 38.3303 31.974C36.8222 31.2486 35.2432 30.7088 33.752 30.0509C33.0064 29.7135 32.2641 29.3762 31.559 28.9713C30.8506 28.5933 30.1844 28.1409 29.5718 27.6218C28.9696 27.1175 28.4682 26.5039 28.0941 25.8134C27.7371 25.1163 27.5248 24.3543 27.4699 23.5731C27.4699 23.2357 27.3282 22.9388 27.1831 22.9388H27.0245C26.8828 22.9388 26.7783 23.2459 26.7951 23.6136C26.8571 24.4855 27.0947 25.3359 27.4935 26.1136C27.9068 26.8785 28.4608 27.5585 29.1265 28.1177C29.7731 28.6688 30.4766 29.1495 31.225 29.5516C31.9571 29.97 32.7162 30.3175 33.4787 30.6616C35.0105 31.3364 36.5692 31.8661 38.0402 32.5746C39.517 33.2524 40.9051 34.109 42.1731 35.1252C42.4397 35.358 42.7366 35.4592 42.8479 35.3546Z" fill="#00537B"/>
<path d="M43.9647 35.8842C43.6982 35.6143 43.4047 35.4828 43.2899 35.584L43.1786 35.6953C43.0808 35.7999 43.2022 36.0867 43.4519 36.3363C44.4285 37.3931 45.16 38.6522 45.5943 40.024C45.6989 40.3613 45.8979 40.6076 46.0295 40.5739L46.1813 40.5368C46.3298 40.4997 46.35 40.1825 46.2387 39.8182C45.7781 38.3561 45.0018 37.0131 43.9647 35.8842Z" fill="#00537B"/>
<path d="M45.6719 40.8843C45.3286 39.3433 44.6061 37.9123 43.57 36.721C42.5112 35.5234 41.2562 34.5148 39.8587 33.7385C38.4462 32.9333 36.973 32.2396 35.4525 31.6636C33.8785 31.0789 32.3504 30.3774 30.8809 29.5651C30.5435 29.3795 30.2365 29.3019 30.1589 29.4234L30.0746 29.5549C29.997 29.6696 30.2028 29.953 30.5435 30.1487C32.0431 30.9795 33.6028 31.6967 35.2096 32.2945C36.6973 32.8562 38.1389 33.533 39.5214 34.3188C40.8548 35.0565 42.0528 36.0161 43.0639 37.1562C44.0296 38.2648 44.7023 39.5975 45.0207 41.0328C45.0882 41.3533 45.2569 41.5928 45.3986 41.5692L45.5538 41.5422C45.6888 41.5254 45.7427 41.2285 45.6719 40.8843Z" fill="#00537B"/>
<path d="M45.5673 46.8493C45.9347 45.4688 46.0614 44.0353 45.9418 42.6118C45.898 42.2744 45.7495 41.9943 45.6044 42.0146L45.4492 42.0348C45.3075 42.0551 45.2232 42.3385 45.2637 42.6657C45.3823 44.0112 45.2682 45.3671 44.9263 46.6739C44.8622 47.0113 44.8622 47.2778 45.0005 47.325L45.149 47.3756C45.2704 47.4195 45.4965 47.1968 45.5673 46.8493Z" fill="#00537B"/>
<path d="M34.6899 57.0181C36.642 56.7865 38.5443 56.2431 40.3243 55.4088C40.6954 55.2097 41.08 55.041 41.4376 54.8183L42.5004 54.1267L43.4889 53.3069C43.8061 53.0235 44.0962 52.7063 44.3965 52.406C44.5025 52.3019 44.5995 52.189 44.6867 52.0687L44.9599 51.7313L45.2332 51.3939C45.3284 51.2808 45.4142 51.16 45.4896 51.0329C45.8203 50.5452 46.1136 50.0332 46.3668 49.5012L46.5591 49.103C46.6274 48.973 46.685 48.8376 46.7312 48.6982L47.0281 47.8682C47.1977 47.3136 47.3385 46.7505 47.4498 46.1813C47.5072 45.7832 47.4498 45.4458 47.298 45.4323L47.1428 45.412C47.0011 45.412 46.8425 45.6887 46.7886 46.0632C46.6836 46.6084 46.5508 47.1478 46.3905 47.6793L46.107 48.4654C46.0641 48.598 46.0099 48.7266 45.9451 48.85L45.7629 49.2245C45.5234 49.7273 45.2459 50.2112 44.9329 50.6719C44.8618 50.7911 44.7805 50.904 44.69 51.0093L44.4302 51.3467L44.1705 51.684C44.0875 51.7964 43.9949 51.9014 43.8938 51.9978L43.769 51.8831C43.9243 51.7232 44.0686 51.553 44.2008 51.3736L44.6158 50.8507C44.8722 50.4863 45.0949 50.0983 45.3344 49.7238C45.574 49.3493 45.7326 48.9276 45.908 48.516L46.134 47.8885C46.2165 47.6818 46.2853 47.4699 46.3398 47.2542C46.8058 45.5361 46.9285 43.743 46.7008 41.9775C46.685 41.8157 46.6405 41.658 46.5693 41.5119C46.4984 41.4005 46.4174 41.3364 46.35 41.3499L46.1948 41.3769C46.1239 41.3769 46.0767 41.4714 46.0531 41.5962C46.0182 41.7489 46.0114 41.9067 46.0328 42.0618C46.2499 43.7367 46.1353 45.438 45.6954 47.0686C45.6449 47.2718 45.5807 47.4713 45.5031 47.6658L45.2906 48.2596C45.1253 48.6442 44.9296 49.0153 44.7508 49.3966C44.5719 49.7778 44.3155 50.1118 44.076 50.456L43.6846 50.9485C43.561 51.1175 43.4258 51.2776 43.2798 51.4276L43.1549 51.3129C43.248 51.2242 43.3327 51.1271 43.408 51.0228L43.6475 50.7191C43.8151 50.5238 43.9695 50.3175 44.1097 50.1017L44.518 49.4505C44.6431 49.2322 44.7558 49.0069 44.8553 48.7758C45.0105 48.462 45.024 48.1617 44.8823 48.101L44.7373 48.0403C44.6124 47.993 44.3999 48.1854 44.2481 48.4789C43.8341 49.3482 43.2928 50.151 42.6421 50.8608C41.8422 51.7193 40.9106 52.4448 39.8823 53.01L39.0894 53.4148C38.8229 53.5498 38.5361 53.6409 38.2595 53.7522C37.6988 53.9714 37.1253 54.1561 36.5422 54.3055C36.2048 54.4101 35.8235 54.454 35.4659 54.5316L34.9261 54.6395C34.7439 54.6699 34.5584 54.6834 34.3762 54.707C34.0039 54.7481 33.6359 54.8215 33.2763 54.9263C32.9647 54.9905 32.6606 55.0866 32.3687 55.2131C31.8491 55.4459 31.5151 55.7529 31.5151 56.0802C31.5151 56.4074 31.8525 56.6908 32.4295 56.8831C32.7584 56.9902 33.0976 57.0625 33.4416 57.0991C33.8592 57.1053 34.2766 57.0783 34.6899 57.0181Z" fill="#00537B"/>
<path d="M29.0421 50.7191C30.3079 50.9317 31.5934 51.0019 32.8748 50.9283C34.1355 50.8646 35.3738 50.5707 36.5287 50.0612L36.9504 49.8621C37.0854 49.7879 37.217 49.7035 37.3485 49.6259C37.6122 49.468 37.8647 49.2921 38.1043 49.0996C38.5764 48.7142 38.9871 48.2592 39.3222 47.7501C39.9882 46.7138 40.3397 45.5068 40.3344 44.275C40.3839 43.0413 40.0858 41.8185 39.4741 40.746C39.1582 40.2197 38.7672 39.7423 38.3135 39.3289C38.0975 39.1063 37.8377 38.9241 37.5982 38.7217C37.3587 38.5192 37.0854 38.3505 36.8188 38.1818C35.7193 37.5073 34.5634 36.9293 33.364 36.4544C32.7702 36.2115 32.1494 35.9787 31.5219 35.7459C31.2081 35.6312 30.9011 35.4929 30.5941 35.368C30.2871 35.2432 29.9767 35.1083 29.673 34.9632C29.4415 34.851 29.1982 34.765 28.9476 34.7068C28.752 34.6629 28.6103 34.6595 28.5833 34.7236L28.5124 34.862C28.4787 34.9261 28.5597 35.0442 28.7182 35.1724C28.9277 35.3296 29.1541 35.4631 29.393 35.5705C29.7034 35.7223 30.0172 35.8573 30.3343 35.9855C30.6514 36.1137 30.9652 36.2587 31.2823 36.3735L32.227 36.7108C32.5408 36.8289 32.8175 36.947 33.1177 37.0482C34.2782 37.5076 35.3969 38.0664 36.4612 38.7183C36.7176 38.8802 36.9538 39.0557 37.1967 39.2277C37.4396 39.3998 37.6623 39.5854 37.8715 39.7878C38.2794 40.1585 38.6306 40.587 38.914 41.0597C39.4599 42.0258 39.7229 43.126 39.6731 44.2345C39.6788 45.337 39.3647 46.4176 38.7689 47.3452C38.4712 47.7984 38.106 48.2034 37.6859 48.5463C37.4721 48.7201 37.2466 48.879 37.0112 49.022C36.8897 49.0929 36.775 49.1705 36.6501 49.238L36.2655 49.4201C34.1805 50.3783 31.5995 50.4087 29.1804 50.0241C28.6406 49.9363 28.1683 49.9465 28.148 50.0882L28.1143 50.24C28.0536 50.4087 28.4787 50.628 29.0421 50.7191Z" fill="#00537B"/>
<path d="M27.0482 33.5564C26.0064 32.9128 25.0389 32.1558 24.1636 31.2993C23.2856 30.414 22.5625 29.3876 22.0246 28.2628C21.9571 28.1245 21.8896 27.9963 21.8188 27.8782C21.7479 27.7601 21.7007 27.6521 21.6433 27.5644C21.532 27.389 21.4274 27.2911 21.3599 27.3148L21.2115 27.3654C21.144 27.389 21.1271 27.5341 21.1541 27.75C21.1711 27.8757 21.1982 27.9998 21.2351 28.1211C21.2823 28.2527 21.343 28.3978 21.4173 28.5462C21.9882 29.736 22.7546 30.8217 23.6845 31.7581C24.5971 32.6544 25.6064 33.4465 26.694 34.1198C27.2237 34.4572 27.7061 34.5955 27.7837 34.4572L27.8613 34.3189C27.9221 34.2143 27.5611 33.8634 27.0482 33.5564Z" fill="#00537B"/>
<path d="M34.8486 36.4376L34.7845 36.5793C34.7237 36.7109 35.1016 37.0145 35.6144 37.2743C36.7682 37.8413 37.8258 38.5859 38.7487 39.4808C39.1783 39.9383 39.5447 40.4512 39.8385 41.0058C40.1086 41.5709 40.3004 42.1702 40.4087 42.7872C40.5041 43.4144 40.5313 44.0502 40.4896 44.6833V44.9194L40.4525 45.1522L40.3817 45.6212L40.2636 46.0767C40.2297 46.2301 40.1823 46.3803 40.1219 46.5254L39.9532 46.964L39.7373 47.3824L39.6293 47.5915L39.4977 47.7872L39.2346 48.1752C39.0404 48.421 38.8296 48.6533 38.6037 48.8702C38.4889 48.9748 38.3776 49.0862 38.2663 49.1907L37.8884 49.4742C36.8414 50.2025 35.6449 50.6878 34.3863 50.8945C33.1134 51.1158 31.8174 51.1725 30.53 51.0632C27.936 50.8423 25.4123 50.1047 23.1075 48.8938C22.6015 48.6239 22.1494 48.4755 22.0718 48.6003L21.9908 48.7353C21.9166 48.8534 22.2641 49.211 22.7938 49.491C25.1789 50.7452 27.791 51.5092 30.476 51.738C31.8277 51.853 33.1885 51.7929 34.5247 51.5592C35.8806 51.3347 37.1693 50.8102 38.2966 50.0241L38.7116 49.7137C38.8432 49.6024 38.9647 49.4775 39.0929 49.3763C39.3431 49.1363 39.5765 48.8793 39.7913 48.6071C39.8925 48.4654 39.9869 48.3203 40.0848 48.1752L40.2298 47.9593L40.3513 47.7265L40.5875 47.2643L40.773 46.7784C40.8385 46.6177 40.8904 46.4518 40.9282 46.2825C40.9721 46.1138 41.0193 45.9451 41.0564 45.7798L41.134 45.267L41.1712 45.0105V44.7541C41.2165 44.0692 41.1871 43.3814 41.0834 42.7028C40.9639 42.0178 40.7505 41.3525 40.4492 40.7258C40.1254 40.1118 39.7202 39.5444 39.2447 39.0388C38.2711 38.0904 37.1542 37.3014 35.9349 36.7007C35.3884 36.4376 34.9059 36.3262 34.8486 36.4376Z" fill="#00537B"/>
<path d="M32.976 36.1002C33.5125 36.3127 33.9882 36.387 34.0455 36.2588L34.1063 36.1137C34.1636 35.9787 33.7689 35.6852 33.2156 35.4693C32.6622 35.2533 32.1089 35.0543 31.559 34.8384C31.0091 34.6224 30.4726 34.3998 29.9463 34.14C28.888 33.6571 27.8723 33.086 26.9098 32.4328C26.7061 32.2918 26.4892 32.1709 26.262 32.0718C26.0866 31.9908 25.955 31.9706 25.9247 32.0279L25.8268 32.1528C25.783 32.2101 25.8268 32.335 25.9618 32.4902C26.1324 32.6814 26.3275 32.8493 26.5421 32.9895C27.5313 33.6627 28.5752 34.2519 29.6629 34.7506C30.2027 35.0172 30.7594 35.2297 31.3093 35.4659C31.8593 35.7021 32.4362 35.8944 32.976 36.1002Z" fill="#00537B"/>
<path d="M25.9079 31.5016C26.9088 32.3091 27.9948 33.0049 29.1468 33.5766C30.307 34.1629 31.5025 34.6767 32.7264 35.115C33.9878 35.5821 35.2164 36.1333 36.4039 36.7649C37.6388 37.3947 38.7462 38.2481 39.6698 39.2818C40.5976 40.3717 41.1646 41.7226 41.2927 43.1482C41.4643 44.5525 41.2702 45.9773 40.7292 47.2845C40.4405 47.9375 40.0524 48.5418 39.5787 49.076L39.4067 49.2785L39.2144 49.4607L38.8264 49.825L38.4046 50.1456C38.2676 50.2558 38.1221 50.3551 37.9694 50.4425C36.779 51.1619 35.4541 51.6303 34.076 51.819C33.4754 51.8932 32.993 52.0518 32.9997 52.1969V52.3521C32.9997 52.4938 33.5294 52.5646 34.1637 52.4836C35.638 52.2811 37.055 51.7782 38.327 51.0059C39.6646 50.1856 40.7231 48.9801 41.3635 47.5477C41.9523 46.1324 42.165 44.589 41.9809 43.0672C41.8372 41.5087 41.2163 40.0325 40.2029 38.8398C39.2265 37.743 38.0551 36.8369 36.7481 36.1677C35.5322 35.5216 34.2743 34.9581 32.9829 34.4808C31.7763 34.0531 30.5977 33.5505 29.4538 32.976C28.345 32.4258 27.2997 31.756 26.3364 30.9787C26.1548 30.8363 25.9644 30.7055 25.7662 30.5873C25.6076 30.503 25.4794 30.476 25.4288 30.5266L25.3208 30.6413C25.2702 30.6919 25.3208 30.8168 25.4119 30.9787C25.5446 31.1813 25.7126 31.3584 25.9079 31.5016Z" fill="#00537B"/>
<path d="M22.0346 23.1682C21.9845 24.2987 22.1167 25.4299 22.426 26.5184C22.7536 27.5957 23.2712 28.6058 23.9544 29.5009C24.2918 29.9598 24.6966 30.1757 24.7945 30.1015L24.9092 29.9969C25.0205 29.8923 24.7877 29.5212 24.4942 29.0961C23.8571 28.262 23.3749 27.3204 23.0704 26.316C22.7829 25.2973 22.6611 24.239 22.7094 23.1817C22.7246 22.956 22.711 22.7292 22.6689 22.5069C22.6386 22.3315 22.6014 22.2168 22.5272 22.2066L22.372 22.1864C22.3046 22.1864 22.2135 22.2775 22.1494 22.4529C22.0825 22.6859 22.044 22.926 22.0346 23.1682Z" fill="#00537B"/>
<path d="M40.4862 11.2856C38.9772 10.9823 37.4435 10.8185 35.9045 10.7964H35.331H34.7507C34.3627 10.8166 33.9747 10.8166 33.5867 10.8504L32.4227 10.9853C32.0347 11.0224 31.6535 11.127 31.2655 11.1945C30.6191 11.3313 29.9806 11.5025 29.3525 11.7073C29.0387 11.8187 28.7283 11.9435 28.4179 12.065C28.2627 12.1257 28.1075 12.183 27.9523 12.2505L27.4901 12.4833C26.2639 13.061 25.1358 13.8271 24.1466 14.7539C22.7554 16.0427 21.6913 17.6446 21.0427 19.4267C20.4095 21.2003 20.1925 23.0957 20.4084 24.9666C20.4928 25.611 20.6918 26.1069 20.847 26.0732L21.0022 26.0395C21.127 26.0091 21.1608 25.4963 21.0798 24.8923C20.8735 23.1184 21.079 21.3208 21.6803 19.6393C22.2925 17.9587 23.2964 16.4482 24.6089 15.233L24.7236 15.3578C23.6725 16.3271 22.818 17.4898 22.2067 18.7823C21.6122 20.0828 21.2687 21.4839 21.1945 22.9119C21.1045 24.3386 21.29 25.7693 21.7411 27.1258C22.2072 28.4806 22.948 29.7246 23.9172 30.7797C24.312 31.2386 24.764 31.4545 24.8585 31.3634L24.9665 31.2487C25.0677 31.1407 24.7877 30.7561 24.4199 30.3276C23.5172 29.3398 22.8281 28.1763 22.3956 26.9099C21.9687 25.6331 21.7923 24.2859 21.876 22.9423C21.9419 21.6015 22.2601 20.2852 22.814 19.0623C23.3876 17.849 24.1894 16.7573 25.1757 15.847L25.2904 15.9719C24.079 17.0855 23.1533 18.4741 22.5913 20.0205C22.4091 20.5502 22.4293 21.0327 22.5576 21.0327L22.7094 21.0698C22.8578 21.1035 23.0468 20.7324 23.2256 20.2297C23.7463 18.7837 24.6073 17.4842 25.7357 16.4408C27.137 15.1567 28.8282 14.2307 30.6649 13.7418C30.8977 13.681 31.1238 13.5967 31.3599 13.5528L32.0718 13.4111C32.5481 13.3182 33.029 13.2507 33.5124 13.2087C34.4915 13.1177 35.4756 13.094 36.4578 13.1378C37.6448 13.1841 38.8262 13.3262 39.9902 13.5629C41.2217 13.816 42.325 14.042 43.165 14.1702C44.0051 14.2984 44.5956 14.3086 44.7609 14.0218C44.9262 13.735 44.5888 13.1918 43.8162 12.6318C42.8093 11.9612 41.6762 11.5032 40.4862 11.2856Z" fill="#00537B"/>
</g>
<defs>
<clipPath id="clip0_11_13">
<rect width="68" height="68" fill="white"/>
</clipPath>
</defs>
</svg>
