<svg width="125" height="39" viewBox="0 0 125 39" fill="none" xmlns="http://www.w3.org/2000/svg">
<g clip-path="url(#clip0_5_89)">
<path d="M10.105 16.4368C9.20953 15.9548 8.06883 15.7112 6.71178 15.7112C5.33376 15.7112 4.19175 15.9746 3.31852 16.5013C2.87949 16.7597 2.50036 17.1091 2.20643 17.5263C1.91251 17.9434 1.71055 18.4188 1.61402 18.9206C1.56757 19.1584 1.54299 19.3999 1.5406 19.6423C1.5281 19.9958 1.60226 20.3471 1.75659 20.6651C1.91091 20.9832 2.14065 21.2583 2.42563 21.4662C2.96975 21.8745 3.76169 22.2287 4.84601 22.5488C5.93034 22.8688 6.64229 23.1493 7.02121 23.4074C7.16708 23.4931 7.28811 23.6156 7.37229 23.7627C7.45647 23.9099 7.50088 24.0766 7.5011 24.2463C7.5011 25.7529 6.45217 26.4851 4.28615 26.4851C3.62767 26.4844 2.97305 26.3841 2.34434 26.1875C1.7563 26.012 1.20024 25.7425 0.697527 25.3894C0.658216 25.361 0.612497 25.3428 0.564474 25.3366C0.51645 25.3303 0.467628 25.3361 0.422392 25.3535C0.377156 25.3708 0.336922 25.3992 0.305304 25.4361C0.273686 25.4729 0.251675 25.5171 0.241247 25.5646L0.0117954 26.601C1.10469e-05 26.6545 0.00334304 26.7102 0.0214146 26.7618C0.0394861 26.8135 0.0715772 26.8591 0.114065 26.8934C0.525767 27.2239 1.12759 27.5018 1.90379 27.7191C2.61891 27.9255 3.35857 28.0336 4.10259 28.0404C7.02777 28.0404 8.7362 26.9869 9.17806 24.9166C9.24614 24.6373 9.28005 24.3508 9.27902 24.0632C9.28676 23.7271 9.21858 23.3936 9.07961 23.0877C8.94063 22.7819 8.73446 22.5116 8.47659 22.2972C7.97442 21.8679 7.17855 21.4939 6.03785 21.1554C5.44252 21.0012 4.85747 20.8094 4.28615 20.5812C3.99191 20.4716 3.72388 20.3011 3.49946 20.0808C3.3617 19.9218 3.28949 19.716 3.29754 19.5053C3.30113 19.3467 3.32224 19.189 3.36048 19.0352C3.40891 18.7586 3.52119 18.4974 3.68832 18.2723C3.85546 18.0473 4.07278 17.8647 4.32286 17.7393C4.88141 17.4416 5.63402 17.2902 6.55182 17.2902C7.82102 17.2902 8.84896 17.5246 9.61074 17.9855C9.6509 18.0099 9.69631 18.0242 9.74313 18.0273C9.78996 18.0303 9.83682 18.022 9.87977 18.003C9.92272 17.984 9.96048 17.9549 9.98988 17.9182C10.0193 17.8815 10.0394 17.8382 10.0487 17.792L10.2545 16.7555C10.2673 16.6933 10.2596 16.6286 10.2326 16.5712C10.2057 16.5137 10.1609 16.4666 10.105 16.4368Z" fill="#413F3F"/>
<path d="M18.1712 16.1655C18.1438 16.1313 18.109 16.1037 18.0695 16.0848C18.0301 16.0658 17.9869 16.0561 17.9431 16.0562H15.4611L16.076 13.093C16.085 13.0503 16.0844 13.0061 16.0742 12.9636C16.064 12.9211 16.0445 12.8815 16.0171 12.8475C15.9897 12.8136 15.9551 12.7862 15.9159 12.7674C15.8766 12.7486 15.8337 12.7388 15.7902 12.7388H14.5984C14.5311 12.7389 14.466 12.7623 14.414 12.805C14.3619 12.8477 14.3261 12.9071 14.3125 12.9732L13.6727 16.0562H12.1439C12.077 16.0562 12.0122 16.0792 11.9602 16.1213C11.9082 16.1635 11.8721 16.2223 11.858 16.2879L11.6522 17.2546C11.643 17.2974 11.6435 17.3418 11.6536 17.3844C11.6637 17.427 11.6831 17.4669 11.7105 17.501C11.7379 17.5351 11.7726 17.5626 11.812 17.5815C11.8513 17.6003 11.8944 17.6101 11.938 17.6101H13.3423L11.9 24.3621C11.8154 24.7318 11.774 25.1101 11.7768 25.4894C11.7768 26.327 12.0259 26.971 12.5189 27.403C13.0119 27.8349 13.6819 28.0404 14.5459 28.0404C15.129 28.0535 15.7111 27.9875 16.2766 27.8441C16.3283 27.8295 16.375 27.8009 16.4115 27.7614C16.448 27.7219 16.473 27.6731 16.4838 27.6202L16.6896 26.6075C16.6984 26.5575 16.694 26.506 16.677 26.4582C16.6599 26.4103 16.6308 26.3677 16.5925 26.3345C16.5542 26.3014 16.508 26.2787 16.4584 26.2689C16.4087 26.259 16.3574 26.2623 16.3094 26.2783C15.9142 26.4198 15.4978 26.492 15.0782 26.4916C14.504 26.4916 14.0936 26.3994 13.8576 26.2177C13.6425 26.0531 13.5376 25.7792 13.5376 25.3814C13.548 25.1 13.5839 24.82 13.6451 24.5452L15.132 17.6167H17.7386C17.8054 17.6167 17.8702 17.5937 17.9222 17.5516C17.9743 17.5094 18.0103 17.4506 18.0244 17.385L18.2302 16.4183C18.2404 16.3744 18.2403 16.3288 18.2301 16.285C18.2199 16.2411 18.1997 16.2002 18.1712 16.1655Z" fill="#413F3F"/>
<path d="M30.5931 16.0562H29.3777C29.3109 16.0562 29.246 16.0792 29.194 16.1214C29.142 16.1636 29.106 16.2224 29.0919 16.288L27.411 24.1383C26.7357 24.9496 26.029 25.5501 25.3131 25.9202C24.578 26.298 23.7631 26.4923 22.9373 26.4864C20.6926 26.4864 20.433 25.3526 20.433 24.5005C20.4413 24.1806 20.4773 23.862 20.5405 23.5483L22.0536 16.4105C22.0628 16.3677 22.0623 16.3233 22.0522 16.2807C22.0422 16.238 22.0227 16.1982 21.9953 16.1641C21.9679 16.13 21.9332 16.1025 21.8938 16.0836C21.8545 16.0647 21.8114 16.0549 21.7678 16.0549H20.5759C20.5091 16.0549 20.4443 16.0779 20.3923 16.1201C20.3402 16.1623 20.3042 16.2211 20.2901 16.2867L18.777 23.3982C18.6854 23.797 18.637 24.2045 18.6328 24.6138C18.6328 25.6673 18.9776 26.5075 19.6581 27.1225C20.3386 27.7375 21.3325 28.0444 22.6397 28.0444C24.229 28.0568 25.768 27.4849 26.9665 26.4364L26.7751 27.3438C26.7661 27.3865 26.7667 27.4307 26.7769 27.4732C26.7871 27.5157 26.8066 27.5553 26.834 27.5893C26.8614 27.6232 26.896 27.6506 26.9352 27.6694C26.9745 27.6882 27.0174 27.698 27.0609 27.698H28.2527C28.3206 27.6988 28.3867 27.6759 28.4395 27.6331C28.4924 27.5903 28.5288 27.5304 28.5425 27.4636L30.8803 16.4118C30.8893 16.3691 30.8886 16.3249 30.8784 16.2824C30.8682 16.2399 30.8487 16.2003 30.8213 16.1663C30.794 16.1324 30.7594 16.105 30.7201 16.0862C30.6809 16.0674 30.6379 16.0576 30.5945 16.0576L30.5931 16.0562Z" fill="#413F3F"/>
<path d="M46.6613 10.2011C46.634 10.1671 46.5994 10.1396 46.5602 10.1207C46.5209 10.1018 46.478 10.0919 46.4345 10.0918H45.219C45.1522 10.0918 45.0874 10.1148 45.0353 10.157C44.9833 10.1991 44.9473 10.2579 44.9332 10.3236L43.3729 17.6458C43.0327 17.1131 42.5588 16.6797 41.9988 16.3894C41.1571 15.939 40.1501 15.7099 39.0068 15.7099C37.8748 15.704 36.7574 15.9671 35.7459 16.4777C34.7342 16.9922 33.8526 17.7318 33.1682 18.6401C32.4536 19.5836 31.9606 20.6771 31.726 21.8389C31.6164 22.3194 31.5601 22.8105 31.5581 23.3034C31.5398 24.186 31.76 25.0571 32.1953 25.824C32.6118 26.5381 33.2277 27.1137 33.9667 27.4794C34.7574 27.8622 35.6262 28.0543 36.5038 28.0404C38.5308 28.0404 40.2406 27.403 41.6016 26.144L41.3537 27.3411C41.3448 27.3839 41.3454 27.4281 41.3556 27.4706C41.3658 27.513 41.3853 27.5527 41.4127 27.5866C41.4401 27.6206 41.4746 27.6479 41.5139 27.6668C41.5531 27.6856 41.5961 27.6954 41.6396 27.6954H42.834C42.9011 27.6953 42.966 27.6721 43.0181 27.6297C43.0701 27.5873 43.106 27.5282 43.1199 27.4623L46.719 10.4461C46.728 10.4035 46.7276 10.3594 46.7176 10.3171C46.7076 10.2747 46.6884 10.2351 46.6613 10.2011ZM42.7921 20.3798L42.1667 23.3166C41.6573 24.2757 40.8976 25.0775 39.969 25.6359C39.0405 26.1943 37.9781 26.4884 36.8958 26.4864C35.7551 26.4864 34.8662 26.1954 34.2525 25.6212C33.6389 25.047 33.3347 24.2569 33.3347 23.2112C33.3378 22.7917 33.3817 22.3736 33.4659 21.9627C33.656 21.0721 34.0407 20.235 34.5921 19.5119C35.1174 18.8209 35.7921 18.2589 36.5654 17.8684C37.3138 17.4881 38.1406 17.2896 38.9792 17.2889C40.1265 17.2889 41.0482 17.5681 41.7169 18.1199C42.3856 18.6717 42.7291 19.4013 42.7921 20.3798Z" fill="#413F3F"/>
<path d="M49.8697 16.0562H48.6778C48.6108 16.0562 48.5458 16.0794 48.4938 16.1218C48.4418 16.1643 48.4058 16.2234 48.392 16.2893L46.0542 27.3411C46.0452 27.3838 46.0459 27.428 46.0561 27.4705C46.0663 27.5129 46.0858 27.5526 46.1131 27.5865C46.1405 27.6205 46.1751 27.6479 46.2144 27.6667C46.2536 27.6855 46.2965 27.6953 46.34 27.6953H47.5319C47.5985 27.695 47.663 27.6719 47.7147 27.6297C47.7665 27.5876 47.8023 27.5289 47.8164 27.4635L50.1542 16.4117C50.1631 16.369 50.1625 16.3248 50.1523 16.2823C50.1421 16.2398 50.1226 16.2002 50.0952 16.1662C50.0678 16.1323 50.0333 16.1049 49.994 16.0861C49.9548 16.0673 49.9118 16.0575 49.8683 16.0575L49.8697 16.0562Z" fill="#413F3F"/>
<path d="M50.9448 12.0883C50.8514 11.9726 50.7329 11.88 50.5983 11.8174C50.4638 11.7549 50.3168 11.7241 50.1686 11.7274C49.8555 11.726 49.5533 11.8425 49.3216 12.054C49.0954 12.2465 48.9387 12.5085 48.8758 12.7994C48.8521 12.8909 48.8415 12.9854 48.8443 13.0799C48.8426 13.2062 48.8673 13.3315 48.9167 13.4476C48.9662 13.5638 49.0393 13.6682 49.1315 13.7542C49.3191 13.9303 49.5684 14.0249 49.8251 14.0176C50.1277 14.0158 50.4201 13.9072 50.6511 13.7107C50.8979 13.5133 51.0715 13.2382 51.1441 12.9298C51.1768 12.7835 51.1759 12.6317 51.1413 12.4859C51.1068 12.34 51.0396 12.2041 50.9448 12.0883Z" fill="#413F3F"/>
<path d="M62.6324 16.9978C61.7146 16.1444 60.4559 15.7112 58.9035 15.7112C57.7152 15.6981 56.5394 15.9557 55.4644 16.4645C54.4356 16.9586 53.5416 17.6961 52.8591 18.6137C52.1566 19.5689 51.6734 20.6686 51.4444 21.8336C51.3328 22.3311 51.2765 22.8395 51.2766 23.3494C51.2766 24.781 51.7486 25.9346 52.6795 26.7735C53.6104 27.6124 54.856 28.0351 56.4058 28.0351C58.3148 28.0351 59.9551 27.482 61.2793 26.3903C62.6036 25.2985 63.4729 23.8077 63.8662 21.9561C63.9769 21.4665 64.0332 20.9661 64.0341 20.464C64.0301 19.0259 63.5594 17.8578 62.6324 16.9978ZM60.1124 25.2248C59.1327 26.0526 57.8891 26.4986 56.609 26.4811C55.4526 26.4811 54.5544 26.194 53.9421 25.6264C53.3298 25.0588 53.0243 24.2805 53.0243 23.2559C53.0376 22.8203 53.089 22.3867 53.1777 21.9601C53.3632 21.0637 53.7403 20.2185 54.283 19.4829C54.7921 18.7945 55.4556 18.2364 56.2196 17.8538C56.991 17.4743 57.84 17.2809 58.699 17.2889C59.858 17.2889 60.7562 17.5667 61.3711 18.1133C61.986 18.6598 62.281 19.4223 62.281 20.4495C62.2701 20.9162 62.2113 21.3805 62.1054 21.835C61.7802 23.2494 61.1115 24.3938 60.1124 25.2248Z" fill="#413F3F"/>
<path d="M70.1637 14.3928L66.7704 16.8568V14.1387L70.6213 11.3059H73.0509V27.4029H70.1663L70.1637 14.3928Z" fill="#413F3F"/>
<path d="M75.3506 26.09C75.351 25.9086 75.3886 25.7292 75.4613 25.5631C75.5339 25.397 75.64 25.2477 75.7728 25.1247L78.5078 22.5909L80.0209 21.2331C80.8609 20.4965 81.499 19.9057 81.9352 19.4605C82.3569 19.0341 82.7159 18.5494 83.0011 18.0211C83.2759 17.508 83.418 16.9338 83.4142 16.3512C83.4142 15.4733 83.1581 14.8016 82.6458 14.3363C82.1336 13.871 81.4037 13.6374 80.4562 13.6357C79.6789 13.6433 78.9081 13.7794 78.1748 14.0387C77.4034 14.2989 76.6793 14.6837 76.0311 15.1778V12.3898C77.3606 11.4381 78.996 10.9623 80.9374 10.9623C82.6489 10.9623 83.9784 11.4228 84.9259 12.3438C85.8735 13.2647 86.3472 14.5237 86.3472 16.1208C86.3528 16.8462 86.2044 17.5645 85.9119 18.2279C85.5963 18.9195 85.1791 19.5597 84.6742 20.1269C83.9875 20.8945 83.2605 21.6247 82.4964 22.3143L79.6302 24.9851H86.9202V27.403H76.6512C76.3035 27.403 75.97 27.2643 75.7241 27.0173C75.4782 26.7703 75.3401 26.4353 75.3401 26.0861L75.3506 26.09Z" fill="#413F3F"/>
<path d="M90.4053 26.493C89.3048 25.6563 88.7545 24.471 88.7545 22.9372C88.7545 21.9399 89.0028 21.1032 89.4993 20.4271C89.9897 19.7555 90.684 19.2619 91.4778 19.0206C90.8186 18.7066 90.2634 18.2088 89.8782 17.5865C89.4906 16.9454 89.2919 16.207 89.3052 15.457C89.3052 14.061 89.8096 12.9636 90.8183 12.1646C91.827 11.3657 93.1718 10.9667 94.8527 10.9675C96.5493 10.9675 97.8981 11.3666 98.8989 12.1646C99.8997 12.9627 100.4 14.0602 100.4 15.457C100.413 16.2068 100.215 16.945 99.8285 17.5865C99.4427 18.2115 98.8854 18.7113 98.2237 19.0259C99.0186 19.2663 99.7143 19.7594 100.206 20.4311C100.703 21.1062 100.951 21.9429 100.951 22.9412C100.951 24.4767 100.405 25.662 99.3119 26.4969C98.2193 27.3319 96.7333 27.7502 94.854 27.752C92.9887 27.7494 91.5058 27.3297 90.4053 26.493ZM97.2141 24.8811C97.7954 24.3674 98.086 23.6576 98.086 22.7516C98.086 21.8736 97.7879 21.1826 97.1918 20.6787C96.5956 20.1747 95.8159 19.9214 94.8527 19.9188C93.8912 19.9188 93.1119 20.1721 92.5149 20.6787C91.9179 21.1853 91.6198 21.8762 91.6207 22.7516C91.6207 23.6576 91.9148 24.3674 92.5031 24.8811C93.0914 25.3947 93.8746 25.6519 94.8527 25.6528C95.8465 25.6528 96.6337 25.3955 97.2141 24.8811ZM96.9164 17.5127C97.4357 17.0597 97.6957 16.4495 97.6966 15.6822C97.7094 15.3325 97.6455 14.9842 97.5096 14.662C97.3737 14.3397 97.1689 14.0514 96.9099 13.8174C96.3854 13.3415 95.7014 13.1036 94.8579 13.1036C94.0144 13.1036 93.3344 13.3415 92.8178 13.8174C92.5609 14.0528 92.3582 14.3415 92.2237 14.6636C92.0892 14.9856 92.0262 15.3332 92.039 15.6822C92.039 16.4504 92.2986 17.0606 92.8178 17.5127C93.337 17.9649 94.0171 18.1914 94.8579 18.1923C95.7111 18.1923 96.3972 17.9658 96.9164 17.5127Z" fill="#413F3F"/>
<path d="M103.244 11.3073H106.155V18.6071L112.734 11.3073H116.219L109.113 19.1826L116.678 27.4029H113.193L106.155 19.7581V27.4029H103.244V11.3073Z" fill="#413F3F"/>
<path d="M123.395 39H77.3449C76.9199 38.999 76.5127 38.8287 76.2126 38.5265C75.9125 38.2243 75.744 37.8149 75.744 37.3881V31.961H78.9537V35.7801H121.79V3.22391H78.9497V7.27614H75.744V1.61328C75.744 1.18577 75.913 0.775767 76.214 0.473469C76.515 0.171172 76.9232 0.00134277 77.3488 0.00134277H123.4C123.826 0.00134277 124.234 0.171172 124.535 0.473469C124.836 0.775767 125.005 1.18577 125.005 1.61328V37.3881C125.005 37.6002 124.964 37.8102 124.883 38.0062C124.802 38.2021 124.683 38.38 124.533 38.5298C124.384 38.6795 124.206 38.7981 124.011 38.8788C123.816 38.9595 123.606 39.0007 123.395 39Z" fill="#413F3F"/>
</g>
<defs>
<clipPath id="clip0_5_89">
<rect width="125" height="39" fill="white"/>
</clipPath>
</defs>
</svg>
