<svg width="32" height="26" viewBox="0 0 32 26" fill="none" xmlns="http://www.w3.org/2000/svg">
<g clip-path="url(#clip0_11_176)">
<path d="M12.5537 14.3993C12.6701 12.3236 13.6865 10.495 15.22 9.19859C16.7237 7.92534 18.7477 7.14709 20.9562 7.14709C23.1625 7.14709 25.1866 7.92534 26.6915 9.19859C28.2237 10.4948 29.2402 12.3236 29.3577 14.3971C29.474 16.5298 28.6167 18.5111 27.113 19.9797C25.5796 21.4736 23.3985 22.411 20.9562 22.411C18.514 22.411 16.3286 21.4736 14.7962 19.9797C13.2914 18.511 12.4362 16.5297 12.5537 14.3993Z" fill="white"/>
<path d="M16.646 14.5845C16.7056 13.5195 17.2272 12.5812 18.014 11.916C18.7856 11.2628 19.8241 10.8634 20.9574 10.8634C22.0894 10.8634 23.128 11.2628 23.9001 11.916C24.6864 12.5812 25.2079 13.5195 25.2681 14.5835C25.3279 15.6778 24.8881 16.6944 24.1164 17.4479C23.3296 18.2144 22.2105 18.6954 20.9574 18.6954C19.7042 18.6954 18.5829 18.2144 17.7966 17.4479C17.0245 16.6944 16.5857 15.6778 16.646 14.5845Z" fill="#265787"/>
<path d="M9.80124 16.7725C9.80874 17.19 9.94186 18.0018 10.1417 18.6355C10.5616 19.9771 11.2739 21.2184 12.265 22.3121C13.2821 23.4365 14.5345 24.3396 15.9812 24.9808C17.5017 25.6541 19.1492 25.9973 20.8605 25.9945C22.569 25.9921 24.2166 25.6423 25.7371 24.9638C27.1837 24.3164 28.435 23.4094 29.4505 22.2845C30.441 21.1861 31.1521 19.9428 31.5732 18.6011C31.7849 17.9233 31.9186 17.2353 31.9722 16.5449C32.0247 15.8638 32.0026 15.1791 31.9062 14.5029C31.7177 13.1765 31.2587 11.932 30.5521 10.7975C29.9059 9.755 29.0729 8.84238 28.0822 8.07413L28.0845 8.0725L18.0882 0.396877C18.0791 0.390127 18.0717 0.382877 18.0621 0.376627C17.4064 -0.126873 16.3034 -0.125123 15.5821 0.379377C14.8529 0.889627 14.7694 1.7335 15.4184 2.26563L15.4156 2.2685L19.585 5.659L6.87711 5.6725H6.86011C5.80974 5.67375 4.80011 6.36288 4.60011 7.23375C4.39474 8.121 5.10824 8.857 6.20036 8.861L6.19861 8.86488L12.6399 8.85238L1.14586 17.675C1.13124 17.6858 1.11536 17.697 1.10186 17.7078C0.0176144 18.538 -0.332886 19.9186 0.349989 20.7923C1.04311 21.6808 2.51686 21.6824 3.61236 20.7974L9.88536 15.6635C9.88536 15.6635 9.79387 16.3565 9.80124 16.7725ZM25.9206 19.0933C24.6281 20.4101 22.8185 21.1568 20.8606 21.1608C18.8997 21.1641 17.0902 20.4241 15.7977 19.1096C15.1661 18.469 14.7022 17.7319 14.416 16.9468C14.1345 16.1741 14.0263 15.3491 14.0989 14.53C14.1671 13.7223 14.4076 12.9519 14.7914 12.2548C15.1684 11.5696 15.6876 10.9504 16.3289 10.4266C17.5851 9.40288 19.1847 8.8485 20.8576 8.84625C22.5324 8.844 24.1307 9.39325 25.3884 10.4138C26.0284 10.9351 26.5471 11.5521 26.9241 12.2363C27.3129 12.9371 27.5498 13.7119 27.6195 14.5103C27.691 15.3288 27.5824 16.1532 27.3011 16.9253C27.0144 17.7128 26.5521 18.4499 25.9206 19.0933Z" fill="#EA7600"/>
</g>
<defs>
<clipPath id="clip0_11_176">
<rect width="32" height="26" fill="white"/>
</clipPath>
</defs>
</svg>
