<svg width="36" height="36" viewBox="0 0 36 36" fill="none" xmlns="http://www.w3.org/2000/svg">
<g clip-path="url(#clip0_11_139)">
<path d="M27.5625 -4.81918e-06L8.4375 -1.47526e-06C3.7776 -6.60496e-07 6.60496e-07 3.7776 1.47526e-06 8.4375L4.81918e-06 27.5625C5.63394e-06 32.2224 3.7776 36 8.4375 36L27.5625 36C32.2224 36 36 32.2224 36 27.5625L36 8.4375C36 3.77759 32.2224 -5.63394e-06 27.5625 -4.81918e-06Z" fill="#F0DB4F"/>
<path d="M9.46572 30.0842L12.2206 28.4169C12.7521 29.3592 13.2356 30.1566 14.3953 30.1566C15.507 30.1566 16.2078 29.7218 16.2078 28.0303L16.2078 16.5275L19.591 16.5275L19.591 28.0781C19.591 31.5821 17.537 33.1771 14.5403 33.1771C11.834 33.1771 10.2631 31.7755 9.46558 30.0839M21.4285 29.7216L24.1831 28.1268C24.9083 29.311 25.8508 30.1809 27.518 30.1809C28.9199 30.1809 29.8137 29.48 29.8137 28.5134C29.8137 27.3535 28.8955 26.9426 27.3489 26.2662L26.5033 25.9035C24.0624 24.8646 22.4433 23.5596 22.4433 20.8047C22.4433 18.2673 24.3766 16.334 27.3974 16.334C29.5481 16.334 31.0947 17.0832 32.2062 19.0406L29.5721 20.7322C28.9921 19.6931 28.364 19.2823 27.3974 19.2823C26.4065 19.2823 25.7782 19.9106 25.7782 20.7322C25.7782 21.7471 26.4065 22.158 27.8564 22.7864L28.7021 23.1488C31.5777 24.3814 33.1969 25.6377 33.1969 28.465C33.1969 31.5101 30.8046 33.1773 27.5906 33.1773C24.4492 33.1773 22.4192 31.6791 21.4285 29.7216Z" fill="#323330"/>
</g>
<defs>
<clipPath id="clip0_11_139">
<rect width="36" height="36" fill="white"/>
</clipPath>
</defs>
</svg>
