<svg width="35" height="35" viewBox="0 0 35 35" fill="none" xmlns="http://www.w3.org/2000/svg">
<g clip-path="url(#clip0_2_9)">
<path d="M26.7969 0H8.20312C3.67266 0 0 3.67266 0 8.20312V26.7969C0 31.3273 3.67266 35 8.20312 35H26.7969C31.3273 35 35 31.3273 35 26.7969V8.20312C35 3.67266 31.3273 0 26.7969 0Z" fill="#330000"/>
<path d="M16.9166 20.8267H11.4916L10.3832 24.2539C10.3541 24.3851 10.2375 24.4726 10.1062 24.458H7.36449C7.20412 24.458 7.16037 24.3705 7.20412 24.1955L11.9 10.6768C11.9437 10.531 11.9875 10.3705 12.0457 10.1955C12.1041 9.88925 12.1332 9.56851 12.1332 9.24763C12.1187 9.17476 12.177 9.10175 12.25 9.08726H16.027C16.1437 9.08726 16.202 9.13101 16.2166 9.20388L21.5395 24.2248C21.5832 24.3851 21.5395 24.458 21.3937 24.458H18.3457C18.2437 24.4726 18.1416 24.3998 18.1125 24.2976L16.9166 20.8267ZM12.3375 17.8664H16.0416C15.9541 17.5601 15.8375 17.1955 15.7062 16.8164C15.575 16.4226 15.4437 15.9998 15.3125 15.5623C15.1666 15.1101 15.0354 14.6726 14.8895 14.2205C14.7437 13.7685 14.6125 13.3455 14.4957 12.9226C14.3791 12.5144 14.277 12.1351 14.175 11.7851H14.1457C14.0145 12.4123 13.8541 13.0394 13.65 13.6664C13.4312 14.3664 13.2125 15.0955 12.9791 15.8248C12.7908 16.5131 12.5768 17.1941 12.3375 17.8664ZM24.7916 11.6393C24.3104 11.6539 23.8437 11.4643 23.4937 11.1289C23.1584 10.7643 22.9834 10.283 22.9979 9.78726C22.9834 9.29138 23.1729 8.82476 23.5229 8.48925C23.8729 8.15374 24.3396 7.97888 24.8209 7.97888C25.3896 7.97888 25.8271 8.15388 26.1479 8.48925C26.4711 8.84279 26.6438 9.30844 26.6291 9.78726C26.6437 10.283 26.4687 10.7643 26.1187 11.1289C25.7834 11.4789 25.2875 11.6685 24.7916 11.6393ZM23.1584 24.2976V13.0685C23.1584 12.9226 23.2166 12.8643 23.3479 12.8643H26.2354C26.3666 12.8643 26.425 12.9373 26.425 13.0685V24.2976C26.425 24.458 26.3666 24.531 26.2354 24.531H23.3771C23.2312 24.531 23.1584 24.4435 23.1584 24.2976Z" fill="#FF9A00"/>
</g>
<defs>
<clipPath id="clip0_2_9">
<rect width="35" height="35" fill="white"/>
</clipPath>
</defs>
</svg>
